<?xml version="1.0" standalone="no"?>
<!DOCTYPE svg PUBLIC "-//W3C//DTD SVG 20010904//EN"
 "http://www.w3.org/TR/2001/REC-SVG-20010904/DTD/svg10.dtd">
<svg version="1.0" xmlns="http://www.w3.org/2000/svg"
 width="500.000000pt" height="500.000000pt" viewBox="0 0 500.000000 500.000000"
 preserveAspectRatio="xMidYMid meet">

<g transform="translate(0.000000,500.000000) scale(0.100000,-0.100000)"
fill="#1F51FF" stroke="fill">
<path d="M1705 4300 c-4 -6 5 -24 19 -41 49 -58 52 -114 11 -229 -44 -124 -57
-280 -31 -376 33 -123 104 -208 229 -271 l69 -34 -7 -52 c-4 -29 -18 -75 -31
-104 -26 -57 -32 -147 -13 -202 11 -32 36 -41 45 -16 4 10 15 0 37 -33 23 -33
47 -54 85 -71 28 -14 52 -29 52 -34 0 -20 -166 21 -245 60 -70 36 -172 143
-217 228 -49 94 -97 234 -104 303 -9 90 -31 148 -70 182 -45 39 -69 40 -60 3
14 -61 18 -103 13 -126 -6 -23 -7 -23 -84 -14 -116 13 -539 2 -658 -17 -133
-22 -249 -50 -365 -87 -109 -36 -348 -147 -369 -172 -12 -16 -7 -17 75 -17
170 0 301 -50 413 -156 113 -106 161 -224 161 -393 l0 -92 103 7 c78 5 117 3
164 -9 178 -46 311 -175 379 -367 16 -44 32 -80 37 -80 5 0 23 11 41 25 58 45
124 67 213 73 l83 5 0 -49 c0 -59 26 -118 68 -161 52 -52 104 -62 192 -37 22
7 21 3 -17 -38 -65 -71 -73 -93 -63 -171 4 -37 17 -85 28 -107 l19 -40 -24
-16 c-14 -8 -31 -31 -39 -50 -13 -30 -13 -38 1 -64 18 -34 39 -38 68 -13 14
13 21 15 24 6 3 -7 13 -23 24 -35 l18 -23 52 58 c28 31 56 57 63 57 7 0 25 13
41 30 45 47 112 64 219 57 81 -6 94 -10 113 -32 12 -14 25 -41 29 -60 3 -19
17 -46 30 -60 35 -38 83 -34 178 15 44 23 101 48 127 56 46 15 50 15 83 -6 20
-12 54 -42 76 -68 39 -45 41 -46 55 -28 8 11 15 28 15 38 0 24 22 23 38 -2 21
-34 46 -25 64 24 l16 44 -34 41 c-34 39 -34 41 -20 70 9 16 18 48 21 72 4 24
11 54 17 66 9 18 7 31 -6 61 l-17 38 38 74 c28 56 38 90 41 137 l4 61 62 28
c113 52 237 35 329 -46 20 -17 43 -30 51 -27 7 3 19 27 25 54 33 129 154 285
268 346 79 42 180 60 291 52 l92 -6 0 73 c0 176 48 307 150 407 102 101 222
147 403 158 102 6 107 7 91 24 -27 30 -253 137 -368 174 -131 43 -312 80 -463
96 -98 10 -544 8 -608 -3 -19 -3 -20 2 -19 85 1 92 -4 100 -43 72 -41 -28 -63
-81 -78 -181 -36 -240 -145 -436 -291 -524 -74 -45 -176 -79 -234 -80 l-45 0
35 21 c47 28 89 68 107 102 13 27 16 28 32 13 17 -15 19 -15 32 0 7 9 15 47
17 84 3 53 0 78 -17 116 -12 27 -26 69 -32 94 -5 25 -12 52 -15 61 -3 12 15
25 69 52 90 45 158 111 200 196 27 55 32 77 35 158 5 100 -5 168 -44 303 -32
111 -31 145 6 203 17 26 30 53 30 58 0 33 -235 -32 -337 -92 -163 -97 -287
-274 -311 -445 -7 -46 -9 -49 -39 -52 -31 -3 -32 -3 -21 26 6 16 8 37 5 47 -6
14 -15 16 -54 10 -48 -7 -136 -46 -148 -65 -15 -24 -33 -8 -38 35 -10 67 -45
163 -83 226 -50 83 -164 187 -259 236 -130 67 -281 104 -300 73z m1488 -157
c3 -27 19 -95 37 -153 58 -193 43 -357 -43 -459 -55 -66 -147 -132 -147 -106
0 3 11 22 25 43 17 26 25 53 26 94 2 40 6 55 15 51 7 -2 15 -11 18 -19 11 -29
25 -14 15 16 -11 29 -17 33 -76 45 -36 7 -36 7 -27 29 9 23 72 20 112 -4 l32
-20 0 43 c0 25 -8 54 -20 72 -14 21 -16 33 -8 42 6 8 7 13 1 13 -14 0 -43 123
-36 150 6 22 4 23 -35 17 -23 -3 -40 -1 -37 3 3 4 -1 10 -9 13 -15 6 -10 57 5
57 5 0 8 -6 7 -12 -2 -7 5 -13 15 -13 19 0 62 52 94 113 9 17 20 32 24 32 4 0
9 -21 12 -47z m-1311 -116 c10 -40 9 -57 -5 -100 -28 -89 -30 -107 -10 -107
14 0 13 -4 -6 -24 -14 -14 -20 -30 -16 -37 6 -8 12 -4 22 15 16 30 45 34 98
12 45 -19 47 -46 4 -46 -38 0 -70 -27 -48 -41 8 -5 20 -9 27 -9 6 0 12 -5 12
-10 0 -16 -43 -29 -61 -19 -17 9 -29 3 -29 -15 0 -6 5 -4 10 4 5 8 10 11 10 7
0 -5 -9 -20 -20 -34 -25 -32 -25 -43 0 -36 21 6 25 0 34 -58 7 -38 60 -105 88
-111 9 -2 24 6 33 17 15 19 16 19 4 -5 -6 -14 -13 -26 -14 -27 -5 -8 -105 33
-133 54 -38 28 -82 74 -82 86 0 4 -11 24 -25 45 -13 20 -29 61 -36 90 -20 95
13 318 62 414 5 10 9 35 9 55 l0 38 31 -55 c17 -30 35 -77 41 -103z m1185
-463 c-3 -3 -12 -4 -19 -1 -8 3 -5 6 6 6 11 1 17 -2 13 -5z m-769 -206 c18
-18 15 -42 -7 -62 -30 -27 -55 -17 -59 23 -5 46 36 69 66 39z m468 -13 c8 -33
-12 -57 -45 -53 -50 6 -36 78 15 78 17 0 25 -7 30 -25z m-616 -107 c0 -17 -3
-18 -15 -8 -8 7 -15 21 -15 32 0 17 3 18 15 8 8 -7 15 -21 15 -32z m723 12
c-3 -11 -9 -20 -14 -20 -10 0 -11 12 -3 34 9 22 23 10 17 -14z m1854 -6 c36
-10 24 -40 -22 -54 -82 -24 -179 -84 -245 -150 -93 -95 -107 -117 -130 -205
-7 -27 -17 -54 -21 -59 -5 -6 -9 -35 -10 -65 -1 -98 -7 -100 -69 -32 -30 33
-99 107 -154 165 -54 57 -103 113 -110 123 -6 11 -26 41 -43 68 -20 30 -33 61
-33 81 l0 32 98 11 c142 16 289 29 442 41 256 19 262 20 249 36 -9 11 -8 14 7
14 11 0 29 -3 41 -6z m-4441 -19 c11 -10 36 -15 82 -15 80 0 443 -25 592 -41
115 -12 153 -25 158 -52 5 -27 -56 -121 -128 -197 -34 -36 -109 -120 -167
-187 -58 -68 -109 -123 -112 -123 -4 0 -7 12 -9 28 -1 15 -7 65 -13 112 -30
209 -183 378 -399 441 -84 24 -98 35 -52 42 15 2 28 5 30 6 2 0 10 -6 18 -14z
m2263 -46 c31 -36 32 -39 12 -39 -11 0 -21 -4 -21 -9 0 -11 -38 -21 -56 -14
-8 3 -14 11 -14 19 0 34 -53 7 -63 -32 -3 -12 -5 -7 -6 14 0 17 3 32 8 32 6 0
27 16 48 35 21 19 43 35 48 34 6 0 25 -18 44 -40z m51 -74 c0 -16 -6 -25 -15
-25 -18 0 -19 4 -3 30 16 26 18 25 18 -5z m1100 -120 c59 -30 384 -247 421
-282 15 -13 33 -25 41 -27 9 -1 38 -22 65 -46 l50 -45 -96 -1 c-71 0 -112 -6
-158 -22 -34 -12 -68 -22 -76 -22 -7 0 -28 -13 -47 -30 -19 -16 -39 -29 -45
-29 -22 -1 -107 -111 -149 -193 l-45 -87 -10 50 c-6 28 -11 123 -12 212 0 152
-9 308 -25 439 -8 66 0 108 22 108 8 0 37 -11 64 -25z m-2325 -15 c7 -22 -11
-609 -21 -705 l-7 -60 -20 45 c-11 25 -23 47 -26 50 -4 3 -18 21 -31 40 -47
71 -135 152 -201 185 -84 43 -212 70 -288 61 l-56 -7 40 42 c22 23 56 48 75
56 19 9 37 18 40 22 6 9 238 165 353 238 88 57 131 66 142 33z m1035 -55 c0
-45 -24 -47 -39 -4 -14 41 -15 39 14 39 22 0 25 -4 25 -35z m220 26 c0 -19
-23 -71 -31 -71 -5 0 -9 18 -9 40 0 33 3 40 20 40 11 0 20 -4 20 -9z m849
-194 c38 -176 98 -389 111 -397 12 -7 43 -147 37 -164 -3 -8 0 -20 6 -27 7 -8
1 -4 -13 7 -64 53 -117 72 -220 79 -89 7 -100 10 -100 27 0 24 -60 143 -114
228 -50 77 -57 95 -49 115 3 9 39 41 79 71 43 33 101 90 140 139 36 46 72 81
78 79 7 -3 27 -73 45 -157z m-1864 111 c16 -24 70 -83 120 -133 122 -120 125
-125 75 -160 -52 -36 -116 -121 -146 -192 -31 -77 -31 -101 4 -115 24 -11 17
-13 -68 -18 -98 -7 -131 -17 -188 -59 -18 -13 -35 -21 -38 -18 -4 3 1 27 10
53 9 26 16 60 16 76 0 15 8 44 19 63 10 19 37 114 61 212 72 299 82 333 95
333 7 0 25 -19 40 -42z m661 -283 c3 -19 9 -35 11 -35 3 0 16 11 29 25 28 31
61 32 114 4 29 -15 50 -19 73 -15 17 4 41 8 52 9 11 1 30 8 42 15 19 10 28 10
52 -3 16 -8 33 -19 36 -25 10 -17 25 -11 25 10 0 11 5 20 10 20 6 0 10 7 10
16 0 11 5 14 16 10 9 -3 20 -6 24 -6 21 0 90 -82 90 -108 0 -10 -5 -10 -22 2
-31 22 -38 20 -38 -8 0 -34 10 -56 25 -56 19 0 40 -69 26 -83 -7 -7 -11 -63
-11 -157 l0 -145 -43 65 -43 65 -49 0 c-36 -1 -77 -12 -145 -42 -52 -23 -130
-56 -173 -73 -46 -19 -82 -41 -89 -54 -25 -46 -12 -148 30 -228 11 -22 -22 -2
-77 48 -66 60 -91 98 -91 138 0 20 -4 23 -22 19 -13 -3 0 6 27 20 50 24 109
89 151 167 27 52 25 181 -5 235 -35 65 -69 107 -105 133 l-34 24 21 24 c12 15
32 24 48 24 24 0 29 -5 35 -35z m-144 -31 c68 -23 142 -104 157 -173 16 -77
14 -114 -12 -173 -25 -56 -95 -137 -137 -158 -13 -7 -52 -16 -86 -19 -52 -6
-61 -4 -59 9 2 8 4 21 4 28 1 7 15 12 34 12 62 0 109 21 157 69 95 95 87 234
-19 319 -100 81 -238 67 -327 -31 -58 -65 -63 -97 -38 -239 5 -31 3 -38 -10
-38 -28 0 -50 59 -51 135 0 110 53 193 160 249 59 31 154 35 227 10z m-48 -55
c89 -22 156 -107 156 -199 0 -49 -26 -116 -56 -142 -63 -55 -184 -89 -184 -52
0 9 -7 31 -15 49 -20 41 -81 63 -126 44 -17 -6 -32 -9 -36 -6 -3 4 -8 40 -11
80 -4 61 -1 80 17 114 24 47 73 89 128 109 47 16 72 17 127 3z m683 -404 c12
-22 22 -53 22 -70 -1 -26 -2 -24 -11 12 -6 30 -20 52 -46 73 -34 29 -35 31
-12 28 16 -2 32 -16 47 -43z m-105 20 c-9 -7 -79 -36 -154 -66 -125 -49 -138
-56 -139 -79 l0 -25 -11 23 c-14 28 9 57 54 66 40 8 148 56 148 67 0 11 48 25
86 25 28 0 30 -2 16 -11z m215 -17 c-3 -7 -5 -2 -5 12 0 14 2 19 5 13 2 -7 2
-19 0 -25z m-147 -29 c26 -47 13 -59 -135 -120 -77 -32 -145 -58 -151 -58 -15
-1 -37 52 -32 76 2 13 40 33 133 70 145 58 169 62 185 32z m-331 -184 c0 -5
-6 1 -14 15 -8 14 -14 30 -14 35 0 6 6 -1 14 -15 8 -14 14 -29 14 -35z m399
27 c4 -24 -21 -51 -45 -52 -7 0 -20 11 -29 25 -22 33 -4 57 40 53 24 -2 32 -8
34 -26z m-648 -47 c0 -5 -5 -3 -10 5 -5 8 -10 20 -10 25 0 6 5 3 10 -5 5 -8
10 -19 10 -25z m546 9 c14 -53 -75 -88 -98 -39 -15 34 12 65 58 65 28 0 35 -4
40 -26z m-132 -49 c9 -13 16 -26 16 -28 0 -2 -18 -12 -40 -22 -32 -15 -42 -15
-55 -5 -20 16 -19 39 2 62 23 25 58 23 77 -7z m294 -7 c3 -23 -3 -31 -33 -45
-36 -17 -37 -17 -51 2 -31 42 -6 77 51 72 25 -2 31 -7 33 -29z m-124 -33 c9
-13 16 -31 16 -39 0 -20 -31 -36 -68 -36 -25 0 -32 6 -41 32 -13 36 -15 33 29
52 46 20 45 20 64 -9z m-130 -50 c25 -37 20 -51 -25 -64 -31 -9 -44 -10 -55 0
-24 19 -17 57 14 73 38 21 47 20 66 -9z m301 -5 c20 -39 19 -57 -6 -70 -35
-19 -59 -8 -79 38 l-19 43 22 9 c42 17 66 11 82 -20z m-117 -45 c19 -41 14
-55 -23 -71 -48 -20 -53 -18 -72 22 -17 35 -17 36 7 55 36 27 74 25 88 -6z
m-134 -47 c29 -41 21 -66 -25 -80 -39 -11 -43 -10 -60 11 -29 36 -24 56 19 74
49 20 49 20 66 -5z"/>
<path d="M3116 4085 c-3 -9 -6 -22 -5 -28 0 -7 5 -1 10 12 5 13 8 26 5 28 -2
2 -6 -3 -10 -12z"/>
<path d="M3085 4020 c-19 -8 -19 -9 3 -9 12 -1 22 4 22 9 0 6 -1 10 -2 9 -2 0
-12 -4 -23 -9z"/>
<path d="M1831 3734 c0 -11 3 -14 6 -6 3 7 2 16 -1 19 -3 4 -6 -2 -5 -13z"/>
<path d="M1821 3675 c0 -11 3 -14 6 -7 2 6 13 12 23 12 10 0 21 3 23 8 3 4 -8
7 -24 7 -23 0 -29 -4 -28 -20z"/>
<path d="M1952 2433 c-7 -2 -17 -14 -23 -25 -8 -15 -8 -19 0 -13 7 4 17 2 24
-3 9 -8 12 -3 12 19 0 16 0 29 0 28 0 0 -6 -3 -13 -6z"/>
<path d="M2018 2373 c6 -2 18 -2 25 0 6 3 1 5 -13 5 -14 0 -19 -2 -12 -5z"/>
<path d="M1911 2350 c-1 -14 8 -40 19 -57 15 -25 26 -33 47 -32 28 1 28 1 -4
10 -27 8 -35 17 -47 57 -10 33 -15 40 -15 22z"/>
<path d="M1975 2360 c4 -6 11 -8 16 -5 14 9 11 15 -7 15 -8 0 -12 -5 -9 -10z"/>
<path d="M2106 2313 c5 -5 12 -12 16 -18 4 -6 8 -2 8 8 0 9 -7 17 -17 17 -9 0
-12 -3 -7 -7z"/>
<path d="M2120 2253 c0 -13 -6 -23 -15 -23 -9 0 -12 -6 -9 -15 4 -10 0 -15
-15 -15 -12 0 -24 7 -27 15 -7 17 -51 20 -74 5 -11 -7 -4 -10 27 -10 23 0 45
-4 48 -10 11 -17 37 -11 61 16 18 19 22 29 14 42 -8 15 -9 14 -10 -5z"/>
<path d="M2017 1164 c-4 -4 -7 -32 -7 -61 0 -52 -1 -54 -22 -46 -13 4 -44 8
-70 8 -40 0 -53 -5 -79 -31 -60 -61 -58 -163 5 -221 30 -28 43 -33 85 -33 28
0 52 4 55 9 3 5 26 6 51 3 l45 -5 -2 189 -3 189 -25 3 c-14 2 -29 0 -33 -4z
m-29 -180 c17 -11 22 -24 22 -57 0 -51 -7 -63 -43 -76 -41 -16 -55 -14 -82 14
-34 33 -34 87 0 121 26 26 57 26 103 -2z"/>
<path d="M1162 973 l3 -188 60 -3 c155 -8 215 21 215 104 0 34 -6 54 -20 70
-20 21 -20 23 -4 57 22 45 11 91 -29 121 -23 17 -46 22 -128 24 l-99 4 2 -189z
m191 110 c10 -6 9 -41 -3 -64 -9 -15 -22 -19 -70 -19 l-60 0 0 51 0 51 63 -7
c34 -4 65 -9 70 -12z m1 -154 c56 -44 15 -92 -76 -87 l-53 3 -3 39 c-5 59 1
66 56 66 35 0 57 -6 76 -21z"/>
<path d="M2980 976 l0 -184 93 -4 c104 -5 142 5 175 47 29 36 28 64 -3 109
-23 35 -24 39 -10 66 24 46 19 78 -19 116 l-34 34 -101 0 -101 0 0 -184z m184
111 c17 -12 17 -18 7 -50 l-13 -37 -59 0 -59 0 0 50 0 50 53 0 c29 0 61 -6 71
-13z m6 -150 c28 -14 39 -57 18 -75 -7 -6 -42 -12 -78 -13 l-65 -3 -3 38 c-2
21 -1 44 2 52 7 18 91 19 126 1z"/>
<path d="M2792 1108 c3 -38 0 -43 -19 -46 -18 -3 -23 -10 -23 -34 0 -25 3 -29
20 -25 19 5 20 0 20 -83 0 -110 13 -130 87 -137 31 -3 53 -1 57 6 10 16 -22
59 -47 63 -20 3 -22 10 -25 81 l-3 77 31 0 c27 0 30 3 30 30 0 27 -3 30 -30
30 -28 0 -30 2 -30 40 0 39 -1 40 -36 40 l-35 0 3 -42z"/>
<path d="M3624 1135 c-4 -8 -4 -24 -1 -36 4 -15 -1 -23 -19 -29 -30 -12 -33
-50 -4 -57 17 -5 20 -14 20 -67 1 -79 14 -137 37 -154 10 -7 37 -12 63 -10 41
3 45 6 48 31 3 25 1 27 -32 27 l-36 0 -2 65 c-1 36 -2 73 -2 83 -1 12 8 18 32
20 26 3 32 7 32 28 0 21 -5 24 -35 24 -35 0 -35 0 -35 45 0 43 -1 45 -30 45
-18 0 -33 -6 -36 -15z"/>
<path d="M1492 954 l3 -116 33 -29 c35 -31 85 -39 123 -18 15 7 24 7 34 -1 8
-6 24 -10 37 -8 23 3 23 5 26 141 l3 137 -36 0 -35 0 0 -84 c0 -70 -3 -88 -21
-111 -18 -22 -27 -26 -52 -21 -41 8 -47 20 -47 91 0 33 -3 77 -6 98 -6 33 -10
37 -36 37 l-30 0 4 -116z"/>
<path d="M2204 1060 c-11 -4 -33 -22 -47 -40 -22 -26 -27 -41 -27 -87 0 -51 3
-58 39 -94 33 -33 45 -39 80 -39 23 0 51 5 62 10 30 16 25 -16 -6 -36 -21 -14
-32 -14 -76 -4 -47 12 -53 11 -66 -6 -20 -28 -16 -41 18 -53 55 -19 132 -14
170 12 47 31 58 72 58 215 l1 122 -35 0 c-19 0 -35 -5 -35 -10 0 -6 -13 -4
-30 5 -32 16 -73 19 -106 5z m114 -70 c29 -27 29 -83 2 -110 -28 -28 -75 -26
-105 5 -33 32 -32 70 1 100 33 30 73 32 102 5z"/>
<path d="M2510 1044 c-46 -39 -63 -79 -56 -132 12 -87 60 -132 141 -132 51 0
99 20 109 45 8 23 8 23 -14 35 -16 8 -26 7 -42 -5 -13 -8 -35 -15 -50 -15 -27
0 -68 30 -68 50 0 6 40 10 101 10 l102 0 -6 51 c-10 78 -57 119 -141 119 -33
0 -52 -6 -76 -26z m131 -44 c10 -6 19 -20 19 -30 0 -18 -7 -20 -70 -20 -62 0
-69 2 -63 18 3 9 10 23 16 30 11 15 71 16 98 2z"/>
<path d="M3352 1060 c-54 -22 -31 -77 26 -61 39 12 102 -4 102 -24 0 -12 -15
-15 -64 -15 -53 0 -67 -4 -90 -25 -37 -34 -37 -105 0 -134 22 -17 39 -20 125
-19 l99 1 0 109 c0 120 -6 140 -50 163 -32 16 -112 19 -148 5z m128 -174 c0
-34 -25 -56 -64 -56 -36 0 -56 15 -56 42 0 24 27 37 78 38 38 0 42 -2 42 -24z"/>
</g>
</svg>
